# xmcd
#
# Track frame offsets: 
#        150
#        28497
#        49605
#        78965
#        110867
#        130215
#
# Disc length: 2274 seconds
#
# Revision: 2
# Processed by: cddbd v1.5.2PL0 Copyright (c) Steve Scherf et al.
# Submitted via: ExactAudioCopy v1.1
#
DISCID=4f08e006
DTITLE=Richie Beirach - Zal
DYEAR=1976
DGENRE=Jazz
TTITLE0=Mavrodaphne
TTITLE1=Broken Wing
TTITLE2=Yesterdays
TTITLE3=Zal
TTITLE4=Black Is The Color Of My True Love's Hair
TTITLE5=What Is This Thing Called Love
EXTD=YEAR: 1999
EXTT0=
EXTT1=
EXTT2=
EXTT3=
EXTT4=
EXTT5=
PLAYORDER=
